<?xml version="1.0" encoding="UTF-8"?>
<svg id="Capa_1" xmlns="http://www.w3.org/2000/svg" version="1.1" viewBox="0 0 1080 223">
  <!-- Generator: Adobe Illustrator 29.0.0, SVG Export Plug-In . SVG Version: 2.1.0 Build 186)  -->
  <defs>
    <style>
      .st0 {
        fill: #10603d;
      }

      .st1 {
        fill: #243971;
      }

      .st2 {
        fill: #e52e2b;
      }

      .st3 {
        fill: none;
        stroke: #fdcc05;
        stroke-miterlimit: 10;
        stroke-width: 11px;
      }

      .st4 {
        font-family: OpenSans-Light, 'Open Sans';
        font-weight: 300;
      }

      .st4, .st5 {
        fill: #ffe;
        font-size: 103.52px;
      }

      .st5 {
        font-family: OpenSans-Bold, 'Open Sans';
        font-weight: 700;
      }
    </style>
  </defs>
  <g>
    <g>
      <path class="st0" d="M173.29,52.21h52.45c.09-.19.18-.28.18-.38q.17-3.03,3.3-3.03c7.81,0,15.61.09,23.42-.06,2.2-.04,4.44-.58,6.56-1.23,1.95-.6,3.63.12,5.42.44,2.03.36,4.07.79,6.12.81,7.75.09,15.5.03,23.25.04,2.39,0,2.48-.25,2.43,2.34,0,.32.09.65.15,1.06h52.63c0-1.12.03-2.17,0-3.21-.03-.85.3-1.21,1.18-1.2,6.01.02,12.02.03,18.03,0,1.26,0,1.3.71,1.3,1.63-.01,5.27,0,10.54,0,15.82,0,8.53-.04,17.05.03,25.57.01,1.65-.52,2.07-2.12,2.07-70.93-.04-141.87-.04-212.8,0-1.65,0-2.06-.5-2.06-2.1.06-13.68.06-27.37,0-41.05,0-1.57.46-1.99,1.99-1.96,5.56.08,11.12.08,16.68,0,1.46-.02,2.08.38,1.89,1.89-.1.81-.02,1.65-.02,2.56ZM251.44,89.21h19.64c.13-2.78.32-5.47.35-8.16.06-5.21,0-10.43.02-15.64,0-1.1.12-2.19.18-3.31h-20.85c.09,1.16.24,2.21.25,3.25.02,5.83-.02,11.66.03,17.49.02,2.08.25,4.17.38,6.37ZM296.51,61.95c.88,0,1.54,0,2.21,0,16.04,0,32.09,0,48.13,0,.45,0,.94.11,1.33-.04.38-.14.94-.53.95-.82.08-2.39.04-4.78.04-7.2h-52.67v8.07ZM173.37,61.83h52.49v-7.94h-52.49v7.94ZM154.18,91.33h14.55c-.38-2.79,1.86-1.73,3.06-2.18.05-.29.13-.51.13-.72,0-11.15,0-22.3.03-33.45,0-1.12-.53-1.27-1.45-1.26-4.54.03-9.09.01-13.63.01-.87,0-1.75,0-2.68,0v37.6ZM353.81,91.38c.47.03.96.09,1.46.09,3.76,0,7.53-.06,11.29.03,1.46.04,1.76-.51,1.76-1.85-.05-11.39-.02-22.77-.03-34.16,0-.54-.07-1.08-.1-1.61h-17.56v35.23q2.83.46,3.19,2.26ZM244.67,62.13h-9.53v27.08h8.95c.12-2.77.32-5.45.35-8.13.05-5.33,0-10.65.03-15.98,0-.99.13-1.97.21-2.97ZM278.56,89.3c2.85,0,5.43.05,8-.06.34-.01.93-.86.92-1.32-.13-8.53-.33-17.06-.53-25.6,0-.08-.13-.17-.21-.27h-8.93c.09,1.28.23,2.49.24,3.7.02,5.95-.03,11.89.03,17.84.02,1.86.3,3.72.48,5.7ZM274.28,50.21c-.04.08-.08.16-.11.24.46.15.91.33,1.38.45,3.3.89,6.6,1.79,9.9,2.67,3.77,1,3.73,1,3.64,4.98-.03,1.23-.45,1.66-1.69,1.66-17.46-.03-34.92-.02-52.38-.02-.79,0-1.84.04-1.6-1.11.33-1.6-1.12-3.56.92-4.81.04-.03.11-.01.17-.03,1.73-.46,3.47-.91,5.2-1.38,2.89-.79,5.77-1.58,8.65-2.37-.02-.07-.04-.13-.06-.2h-20.81v11.66c2.08,0,4.03,0,5.98,0,.2,0,.56-.1.59-.22.4-1.56,1.66-1.05,2.63-1.05,16.28-.02,32.56-.03,48.85.01,1.02,0,2.48-.7,2.88,1.11.02.09.41.15.62.15,1.95.01,3.9,0,5.91,0v-11.74h-20.64ZM173.37,66.75h60.54v-3.35h-60.54v3.35ZM288.55,66.9h2.41c18.51,0,37.03,0,55.54,0q2.89,0,2.66-2.87c-.02-.21-.13-.41-.2-.61h-60.42v3.49ZM210.55,68.35v20.86h8.75v-20.86h-8.75ZM303.1,89.19h8.77v-20.83h-8.77v20.83ZM222.84,68.36v20.8h8.69v-20.8h-8.69ZM323.99,89.22v-20.79h-8.61v20.79h8.61ZM299.65,89.22v-20.86h-8.68v20.86h8.68ZM207.04,89.22v-20.85h-8.61v20.85h8.61ZM327.5,68.34v20.86h8.53v-20.86h-8.53ZM287.59,55.65h-2.23c-16.1,0-32.2,0-48.29,0-2.6,0-2.81.31-2.06,3h52.58v-3ZM186.33,89.17h8.6v-20.79h-8.6v20.79ZM339.57,68.37v20.82h7.54v-20.82h-7.54ZM175.32,89.16h7.59v-20.78h-7.59v20.78ZM170.32,90.89c0,.13,0,.25,0,.38h73.39c0-.13,0-.25,0-.38h-73.39ZM352.13,91.3c0-.13-.01-.25-.02-.38h-73.32v.38h73.34ZM171.83,52.19v-2.94h-17.62v2.94h17.62ZM350.61,52.17h17.56v-2.96h-17.56v2.96ZM240.95,53.91c.03.06.07.13.1.19h17.65c-1.25-1.88-.66-3.41.74-5.16-6.46,1.74-12.48,3.36-18.49,4.97ZM281.34,54.18c.02-.09.04-.19.07-.28-6.02-1.61-12.04-3.23-18.06-4.84,1.37,1.66,1.29,3.31.49,5.12h17.5ZM270.72,91.27c0-.13,0-.26,0-.39h-19c0,.13,0,.26,0,.39h19ZM272.94,87c.1,0,.2,0,.3,0v-23.41c-.1,0-.2,0-.3,0v23.41ZM245.91,86.99c.1,0,.2,0,.3,0v-23.44c-.1,0-.2,0-.3,0v23.44ZM276.14,86.98h.32v-23.42c-.11,0-.21,0-.32,0v23.42ZM250.1,91.45v-2.91c-1.38,0-2.66-.1-3.9.06-.39.05-.88.77-.98,1.26-.13.62-.31,1.56.85,1.59,1.32.03,2.64,0,4.03,0ZM272.35,88.61v2.75h4.74v-2.75h-4.74ZM208.98,69.24c-.09,0-.18,0-.27,0v19.83c.09,0,.18,0,.27,0v-19.83ZM301.17,89.11c.11,0,.21-.01.31-.02v-19.91c-.11,0-.21,0-.31,0v19.92ZM348.64,89.1c.87-2.07.67-19.04,0-19.92v19.92ZM337.6,89.08c.11,0,.21,0,.32,0v-19.86c-.11,0-.21,0-.32,0v19.86ZM289,89.08c.11,0,.21-.01.32-.02v-19.83c-.11,0-.21,0-.32,0v19.85ZM196.5,89.07c.11,0,.22.01.33.02v-19.87c-.11,0-.22,0-.33,0v19.85ZM313.5,89.06c.09,0,.17,0,.26,0v-19.79c-.09,0-.17,0-.26,0v19.79ZM325.94,69.23c-.1,0-.19,0-.29,0v19.85c.1,0,.19,0,.29,0v-19.85ZM233.06,89.08l.31-.02v-19.81c-.1,0-.21,0-.31,0v19.83ZM173.42,89.09h.31v-19.88h-.31v19.88ZM263.31,52.43c0-.26.01-.51.02-.77-.68-.5-1.3-1.3-2.04-1.44-1.16-.21-2.05.71-1.84,1.8.13.7,1.1,1.63,1.78,1.72.63.08,1.39-.83,2.09-1.31ZM249.48,63.58c-.09,0-.18-.01-.28-.02v23.42c.09,0,.18,0,.28,0v-23.4ZM220.9,89.1c.09,0,.19,0,.28,0v-19.92c-.09,0-.19,0-.28,0v19.92ZM184.77,69.25c-.09,0-.18,0-.27.01v19.82h.27v-19.83Z"/>
      <path class="st0" d="M152.46,95.03c.75-.3,1.16-.53,1.6-.61.43-.09.89-.03,1.34-.03,70.54,0,141.08,0,211.61.01.86,0,1.73.21,2.59.32,0,.17-.01.33-.02.5-.27.15-.54.43-.81.43-71.71.02-143.43.02-215.14,0-.27,0-.54-.27-1.18-.62Z"/>
      <path class="st0" d="M348.63,151.04v-7.65c-.79-.05-1.5-.1-2.32-.16v-2.73h8.22v2.69c-.74.07-1.45.13-2.3.21v18.11c.79.06,1.5.11,2.32.17v2.72h-8.23v-2.73c.77-.05,1.48-.09,2.41-.14,0-2.3.04-4.52-.05-6.74-.01-.32-.67-.88-1.04-.88-3.14-.07-6.29-.07-9.43,0-.36,0-.99.59-1,.93-.09,2.17-.05,4.35-.05,6.64.91.08,1.67.15,2.52.22v2.7h-8.35v-2.69c.75-.06,1.5-.13,2.37-.21v-18.09c-.73-.07-1.48-.15-2.36-.23v-2.69h8.34v2.71c-.83.07-1.59.14-2.52.22,0,2.32-.03,4.55.04,6.78,0,.29.51.8.79.8,3.52.06,7.04.04,10.65.04Z"/>
      <path class="st0" d="M303.04,161.63v2.73h-6.44c.14-1.11.27-2.14.41-3.17l.45.02c-.4-.67-.79-1.35-1.2-2.01-2.23-3.7-2.75-3.92-7.36-3.12-.05.29-.16.62-.17.94-.02,1.45,0,2.9,0,4.44.77.1,1.4.18,2.12.28v2.65h-7.9v-2.64c.78-.08,1.54-.15,2.41-.24v-18.08c-.78-.06-1.49-.12-2.34-.19v-2.81h3.62c2.36,0,4.73.18,7.07-.05,2.81-.27,5.07.4,6.58,2.86.52.85.87,1.82,1.14,2.78.16.57-.05,1.24.04,1.84.44,2.83-.34,5.16-2.69,6.89-.96.71-.98,1.47-.27,2.42.6.8,1.09,1.7,1.57,2.59.63,1.16,1.26,2.28,2.97,1.89ZM288.74,152.85c2.09,0,3.9-.17,5.66.04,1.94.23,3.33-.9,3.72-2.22.48-1.63.19-3.61-.24-5.33-.19-.77-1.48-1.65-2.38-1.78-1.86-.27-3.8-.13-5.7-.04-.37.02-1,.58-1.01.91-.08,2.73-.05,5.46-.05,8.41Z"/>
      <path class="st0" d="M152.86,164.5v-2.77c.8-.08,1.56-.15,2.42-.23v-18.07c-.8-.07-1.56-.14-2.4-.22v-2.67c.4-.04.82-.12,1.25-.12,4.37,0,8.75-.05,13.12.04.73.01,1.53.46,2.16.91,2.49,1.78,3.28,4.2,3.02,7.26-.28,3.17-.14,6.38-.03,9.57.06,1.64-.53,2.77-1.58,4-1.51,1.78-3.15,2.47-5.49,2.36-4.08-.19-8.17-.05-12.47-.05ZM158.73,161.35c2.77,0,5.36.18,7.89-.07,1.32-.13,2.39-1.22,2.4-2.78.03-4.03.03-8.06,0-12.09,0-1.42-1.46-2.9-2.87-2.92-2.07-.04-4.15,0-6.22-.02-.82-.01-1.23.23-1.22,1.14.03,5.48.01,10.96.01,16.74Z"/>
      <path class="st0" d="M290.76,113.48c-.73-.09-1.38-.17-2.14-.26v-2.44c2.1,0,4.21-.06,6.31.05.38.02.83.65,1.07,1.09,2.68,4.98,5.33,9.99,7.98,14.98.31.58.63,1.16,1.23,1.69v-15.12c-.64-.08-1.28-.15-2.06-.25v-2.37h7.46v2.33c-.68.08-1.33.16-2.19.27-.03.55-.08,1.14-.08,1.72,0,5.27-.03,10.54.02,15.81.01,1.15-.34,1.46-1.51,1.57-2.23.22-3.5-.49-4.51-2.61-2.25-4.69-4.83-9.23-7.28-13.83-.26-.48-.54-.94-1.04-1.83v15.52c.63.07,1.28.14,2.07.23v2.34h-7.46v-2.33c.72-.08,1.37-.16,2.13-.25v-16.35Z"/>
      <path class="st0" d="M272.46,140.54c-.37,1.13.93,2.78-1.53,2.87.36,1.1.68,2.09,1.02,3.07,1.53,4.45,3.09,8.88,4.56,13.34.41,1.25.92,2.13,2.52,1.79v2.79h-7.5v-2.73c.72-.05,1.37-.09,2.25-.14-.47-1.41-.84-2.73-1.39-3.98-.16-.36-.86-.65-1.32-.66-2.3-.07-4.6.02-6.9-.05-1.03-.03-1.54.34-1.8,1.3-.29,1.07-.69,2.12-1.09,3.33.8.08,1.48.15,2.28.24v2.7h-7.5v-2.76c1.64.33,2.1-.68,2.52-1.95,1.79-5.35,3.66-10.68,5.54-16.16-2.1-.22-1.35-1.7-1.42-2.99h9.77ZM267.51,143.33c-1.32,3.81-2.48,7.15-3.66,10.56h7.35c-1.22-3.51-2.38-6.8-3.69-10.56Z"/>
      <path class="st0" d="M196.02,164.43h-17.42v-2.73c.76-.06,1.52-.12,2.4-.18v-18.09c-.75-.07-1.51-.13-2.4-.21v-2.69h17.52c0,2.13.12,4.31-.11,6.44-.04.38-1.55.61-2.72,1.03v-4.56h-8.78v7.56h8.49v2.82h-8.45v7.71h8.6v-4.08h2.88v7Z"/>
      <path class="st0" d="M323.11,155.95h2.52c1.42,3.84-.93,6.07-3.34,8.23-.28.25-.83.29-1.25.3-1.46.04-2.95-.16-4.37.05-2.92.43-5.03-.6-6.75-2.93-.67-.9-1.09-1.68-1.07-2.83.07-4.04.09-8.08,0-12.11-.04-1.51.47-2.55,1.41-3.72,1.59-1.98,3.38-2.89,5.91-2.54,1.16.16,2.37.14,3.53,0,1.73-.2,2.8.58,4.08,1.68,2.24,1.93,2.46,4.19,1.99,6.88h-2.7c-.03-1.67.25-3.48-1.5-4.49-.73-.42-1.53-.83-2.34-.95-1.1-.16-2.24-.04-3.36-.04-2.38,0-3.67,1.31-3.68,3.7,0,3.65,0,7.29,0,10.94,0,1.89,1.35,3.23,3.23,3.25.9.01,1.8,0,2.7,0,3.6,0,4.79-1.13,4.92-4.67,0-.21.05-.43.09-.74Z"/>
      <path class="st0" d="M248.33,132.41v-2.32c.68-.07,1.33-.15,2.12-.23v-16.42c-.69-.06-1.35-.11-2.09-.18v-2.34h15.79v6.18h-2.41v-3.6h-8.14c0,2.01-.06,3.96.06,5.9.02.32.78.83,1.22.85,2.17.09,4.35.04,6.6.04v2.59c-2.12,0-4.24.05-6.34-.02-1.15-.04-1.62.3-1.57,1.51.08,1.78.02,3.56.02,5.46h7.99c.06-1.23.11-2.43.17-3.74h2.42v6.31h-15.83Z"/>
      <path class="st0" d="M250.28,155.92h2.4c.99,3.38-.44,6.84-3.5,8.4-.37.19-.87.17-1.31.17-2.19.02-4.38-.06-6.57.03-1.13.05-1.81-.46-2.62-1.14-2.14-1.8-2.97-3.91-2.75-6.74.26-3.29.14-6.61.03-9.92-.05-1.63.47-2.78,1.54-4.01,1.52-1.75,3.15-2.7,5.49-2.32.66.11,1.37.14,2.01,0,3.34-.73,5.73.85,7.27,3.47.8,1.35.68,3.25,1,5.08h-3.07c.14-1.8-.05-3.57-1.75-4.66-.58-.37-1.26-.71-1.92-.77-1.28-.12-2.58-.05-3.87-.03-2.05.02-3.38,1.37-3.38,3.47,0,3.7,0,7.4,0,11.1,0,2.04,1.28,3.3,3.3,3.32.56,0,1.13-.05,1.68,0,3.83.44,6.04-.95,6-5.45Z"/>
      <path class="st0" d="M364.02,110.83c-.48,1.13-.83,1.95-1.18,2.77-.2-.04-.4-.07-.59-.11.67,1.94,1.33,3.88,2,5.82,1,2.91,2.05,5.8,2.99,8.73.37,1.16.81,2.08,2.34,1.86v2.33h-6.77v-2.25c.62-.1,1.21-.19,1.99-.32-.4-1.18-.71-2.3-1.17-3.35-.16-.36-.7-.75-1.08-.76-2.3-.07-4.6-.06-6.9,0-.34,0-.84.36-.98.68-.45,1.06-.77,2.18-1.19,3.4.77.13,1.36.22,2.05.34v2.25h-6.77v-2.23c1.6.11,1.98-1.04,2.41-2.32,1.57-4.72,3.22-9.4,4.89-14.25-1.66-.24-1.52-1.32-1.23-2.6h9.18ZM359.33,113.76c-.13,0-.26.02-.39.03-1.03,2.97-2.05,5.94-3.13,9.07h6.65c-1.08-3.12-2.11-6.11-3.14-9.09Z"/>
      <path class="st0" d="M190.18,121.63c0,1.68-.1,3.37.03,5.04.12,1.53-.49,2.56-1.45,3.71-1.36,1.63-2.87,2.33-4.95,2.06-1.05-.13-2.15-.16-3.19,0-2.49.39-4.27-.56-5.78-2.49-.69-.89-1.12-1.67-1.1-2.83.07-3.81.02-7.62.03-11.44,0-2.09,2.87-4.95,4.95-4.95,1.52,0,3.07.21,4.54-.05,3.01-.53,4.86,1.02,6.45,3.18.3.41.44,1.01.45,1.53.05,2.07.02,4.15.02,6.22ZM187.2,121.56c0-1.63,0-3.25,0-4.88-.01-2.12-1.15-3.24-3.32-3.24-1.35,0-2.69-.01-4.04,0-1.83.02-3.11,1.31-3.12,3.15-.02,3.25-.01,6.5,0,9.75,0,2.13,1.16,3.29,3.27,3.3,1.29,0,2.58,0,3.87,0,2.25,0,3.33-1.1,3.34-3.38,0-1.57,0-3.14,0-4.71Z"/>
      <path class="st0" d="M152.86,132.28v-2.08q2.28-.63,2.28-3.14c0-3.92,0-7.84,0-11.75v-1.86c-.83-.1-1.48-.19-2.24-.28v-2.34c.5-.02,1.03-.07,1.57-.07,2.86,0,5.75.28,8.57-.08,3.06-.39,4.62,1.38,6.21,3.33.28.34.33.92.35,1.4.04,1.45-.05,2.91.04,4.36.07,1.15-.4,1.93-1.08,2.83-1.54,2.05-3.42,2.8-5.93,2.5-1.42-.17-2.88-.03-4.42-.03v4.73c.84.07,1.6.14,2.48.22v2.26h-7.83ZM158.16,122.24c1.59,0,3.03,0,4.48,0,3.77,0,5.87-3.42,4.04-6.76-.45-.82-1.37-1.82-2.18-1.92-2.07-.27-4.2-.09-6.35-.09v8.78Z"/>
      <path class="st0" d="M202.3,143.18v-2.67h8.68v2.71c-.86.05-1.73.1-2.75.16v18.13h8.12v-4.11h2.61v6.96h-16.64v-2.65c.72-.06,1.43-.12,2.29-.19v-18.12c-.74-.07-1.49-.15-2.31-.23Z"/>
      <path class="st0" d="M284.09,118.37h-2.39c-.23-1.37.29-3.11-1.32-3.99-.74-.4-1.53-.82-2.34-.94-1.1-.16-2.24-.06-3.36-.04-1.54.03-2.88,1.3-2.9,2.82-.03,3.53-.03,7.06,0,10.59.02,1.51,1.39,2.76,2.93,2.79.56.01,1.13-.06,1.68.01,3.41.42,5.41-.97,5.29-4.91h2.26c.74,3.15-.25,5.7-2.98,7.38-.35.22-.85.24-1.29.25-1.29.03-2.6-.14-3.87.04-2.6.37-4.61-.45-6-2.65-.47-.75-.98-1.64-1-2.47-.1-3.92-.06-7.84-.04-11.77,0-1.84,2.94-4.8,4.76-4.82,1.68-.02,3.37.09,5.05-.03,1.6-.12,2.6.57,3.79,1.58,2.08,1.76,1.9,3.83,1.71,6.14Z"/>
      <path class="st0" d="M344.32,118.38h-2.18c-.26-1.14-.29-2.31-.8-3.21-.78-1.38-2.09-2.08-3.81-1.78-1.62.28-3.56-.71-4.77,1.16-.34.52-.68,1.17-.69,1.76-.07,3.47-.05,6.94-.02,10.42.01,1.64,1.31,2.86,2.98,2.89.5,0,1.02-.05,1.51,0,3.47.41,5.48-.85,5.42-4.91.36-.04.73-.11,1.1-.13.39-.01.78.03,1.15.05.77,3.28-.4,6.1-3.14,7.53-.37.19-.87.18-1.3.19-1.23.02-2.49-.13-3.7.04-2.59.37-4.62-.4-6-2.63-.46-.75-.95-1.64-.97-2.48-.1-3.92-.05-7.84-.04-11.76,0-1.98,2.89-4.83,4.87-4.84,1.63,0,3.26.1,4.88-.03,1.61-.14,2.62.57,3.8,1.59,2.01,1.73,2.09,3.75,1.7,6.14Z"/>
      <path class="st0" d="M230.47,132.68v-2.32c1.06-.07,2.05-.13,3.14-.2v-16.26c-.14-.08-.23-.18-.33-.19-1.29,0-2.9-.46-3.76.15-.73.51-.59,2.26-.85,3.55h-1.98v-6.17h17.18v6.11h-2.38v-3.58h-4.8c0,1.98,0,3.86,0,5.75,0,2.97.08,5.94-.03,8.91-.06,1.51.43,2.06,1.9,1.85.43-.06.87.04,1.41.08v2.33h-9.51Z"/>
      <path class="st0" d="M366.81,161.54c.97.05,1.8.09,2.75.13v2.71h-9.02v-2.69c.86-.06,1.74-.11,2.74-.18v-18.14c-.95-.06-1.82-.11-2.78-.16v-2.68h9.07v2.66c-.94.06-1.8.12-2.76.19v18.14Z"/>
      <path class="st0" d="M196.51,113.28c-.74-.08-1.39-.15-2.14-.23v-2.26h7.81v2.25c-.81.08-1.57.15-2.46.24v16.4h7.28v-3.62h2.49c0,1.85.03,3.72-.04,5.6,0,.23-.5.65-.76.65-4.75.04-9.5.03-14.34.03v-2.37c.72-.09,1.37-.17,2.15-.27v-16.42Z"/>
      <path class="st0" d="M318.12,113.28c-.85-.07-1.56-.13-2.42-.21v-2.24h8.09v2.21c-.74.07-1.54.15-2.45.24v16.39c.83.1,1.64.2,2.51.3v2.23h-8.18v-2.23c.81-.09,1.56-.18,2.46-.28v-16.41Z"/>
      <path class="st0" d="M216.43,129.66v-16.36c-.83-.08-1.64-.16-2.52-.25v-2.2h8.17v2.2c-.84.08-1.6.15-2.48.24v16.39c.8.09,1.61.19,2.48.29v2.29h-8.16v-2.28c.84-.11,1.65-.21,2.51-.31Z"/>
      <path class="st0" d="M259.82,104.87c.34,1.01.6,1.78.85,2.51-1.96,1.52-4.11,1.29-6.23,1.22-.28-.01-.72-.37-.78-.64-.05-.24.25-.73.51-.84,1.8-.76,3.62-1.45,5.65-2.25Z"/>
      <path class="st0" d="M168.73,75.08c0,4.04-.04,8.07.02,12.11.02,1.33-.33,1.94-1.79,1.9-2.69-.09-5.39-.06-8.08-.01-1.22.02-1.68-.4-1.67-1.67.04-8.35.05-16.71,0-25.06,0-1.36.51-1.74,1.79-1.71,2.69.07,5.39.08,8.08,0,1.27-.04,1.67.45,1.66,1.66-.04,4.26-.02,8.52-.02,12.78ZM167.22,87.52v-25.51c-2.35,0-4.58.07-6.81-.03-1.38-.06-1.84.37-1.82,1.78.06,7.39.03,14.78.03,22.18,0,.49.06.99.11,1.57h8.49Z"/>
      <path class="st0" d="M365.1,74.91c0,4.15-.05,8.3.03,12.44.03,1.36-.48,1.76-1.76,1.72-2.69-.06-5.39-.06-8.08,0-1.24.03-1.65-.43-1.64-1.67.04-8.35.05-16.71,0-25.06,0-1.36.48-1.75,1.77-1.71,2.69.07,5.39.08,8.08,0,1.28-.04,1.64.44,1.63,1.67-.06,4.2-.02,8.41-.02,12.61ZM363.7,62.02c-2.36,0-4.65.07-6.92-.03-1.39-.06-1.82.38-1.81,1.79.06,7.39.03,14.77.03,22.16,0,.49.06.98.1,1.55h8.6v-25.48Z"/>
    </g>
    <line class="st3" x1="423.44" y1="172.07" x2="423.44" y2="45.43"/>
  </g>
  <text class="st5" transform="translate(564.32 134.87)"><tspan x="0" y="0">FAB</tspan></text>
  <text class="st4" transform="translate(762.85 134.87)"><tspan x="0" y="0">LAB</tspan></text>
  <g>
    <path class="st1" d="M549.43,117.11c-.62-.64-7.09,2.71-7.68,3.35-.97,1.04-1.66,5.27-2.69,7.17-6.99,12.98-26.27,15.79-24.3-4.6,1.08-11.14,14.3-26.44,25.58-16.97l7.79-3.85c2.93-3.25-3.51-18.12,6.02-18.21,16.96,34.6-6.07,75.82-44.92,77.26l.78-5.93,39.42-22.46v-15.77Z"/>
    <path class="st2" d="M494.47,66.74c-.28.85,5.69,5.03,6.52,5.26,1.37.38,5.44-.96,7.6-.93,14.74.2,26.15,15.99,7.17,23.67-10.37,4.2-30.05-.44-26.88-14.83l-7.02-5.12c-4.24-1.09-14.44,11.49-18.93,3.08,22.83-31.04,70.03-29.7,89.28,4.09l-5.62,2.05-38.15-24.56-13.98,7.29Z"/>
    <path class="st0" d="M479.4,140.77c.86-.22,1.23-7.49.98-8.32-.41-1.36-3.71-4.09-4.84-5.93-7.69-12.58-.4-30.65,16.21-18.68,9.08,6.54,15.64,25.67,1.77,30.65l-.59,8.67c1.33,4.17,17.42,6.1,12.69,14.38-38.43-2.78-62.44-43.44-44.11-77.73l4.73,3.66-.46,45.37,13.62,7.94Z"/>
  </g>
</svg>