<?xml version="1.0" encoding="UTF-8"?>
<svg id="Capa_1" xmlns="http://www.w3.org/2000/svg" version="1.1" viewBox="0 0 2830.52 584.45">
  <!-- Generator: Adobe Illustrator 29.0.0, SVG Export Plug-In . SVG Version: 2.1.0 Build 186)  -->
  <defs>
    <style>
      .st0 {
        fill: #10603d;
      }

      .st1 {
        fill: #ffe;
      }

      .st2 {
        fill: #243971;
      }

      .st3 {
        fill: #e52e2b;
      }

      .st4 {
        fill: none;
        stroke: #fdcc05;
        stroke-miterlimit: 10;
        stroke-width: 11px;
      }
    </style>
  </defs>
  <g>
    <path class="st1" d="M114.84,110.38h183.91c.33-.66.63-.98.65-1.33q.6-10.62,11.57-10.62c27.37,0,54.75.31,82.12-.2,7.7-.14,15.56-2.04,22.99-4.32,6.84-2.1,12.72.42,19.01,1.53,7.1,1.25,14.29,2.77,21.45,2.86,27.17.33,54.35.12,81.53.14,8.39,0,8.69-.86,8.52,8.21-.02,1.13.32,2.27.54,3.71h184.55c0-3.92.09-7.6-.03-11.27-.09-2.97,1.05-4.23,4.14-4.22,21.07.07,42.14.11,63.21-.03,4.43-.03,4.55,2.49,4.54,5.71-.05,18.49-.02,36.97-.02,55.46,0,29.89-.14,59.79.12,89.68.05,5.77-1.81,7.27-7.43,7.27-248.72-.12-497.45-.13-746.17.01-5.79,0-7.23-1.77-7.21-7.35.2-47.98.21-95.97,0-143.95-.02-5.51,1.61-6.96,6.97-6.88,19.49.29,38.99.27,58.49,0,5.13-.07,7.3,1.33,6.63,6.63-.36,2.85-.06,5.77-.06,8.96ZM388.87,240.14h68.86c.44-9.73,1.13-19.17,1.23-28.61.2-18.28.02-36.56.09-54.83.01-3.85.4-7.7.62-11.59h-73.11c.32,4.08.85,7.74.86,11.4.08,20.44-.08,40.88.1,61.32.07,7.31.86,14.61,1.35,22.32ZM546.91,144.56c3.08,0,5.42,0,7.76,0,56.26,0,112.52,0,168.77,0,1.57,0,3.29.37,4.68-.13,1.33-.48,3.29-1.86,3.32-2.89.27-8.38.15-16.77.15-25.26h-184.68v28.28ZM115.12,144.12h184.06v-27.85H115.12v27.85ZM47.85,247.58h51c-1.34-9.77,6.51-6.08,10.74-7.63.19-1.02.46-1.77.46-2.53.03-39.09,0-78.19.12-117.28.01-3.93-1.87-4.45-5.1-4.43-15.93.09-31.87.04-47.8.04-3.07,0-6.13,0-9.41,0v131.83ZM747.85,247.73c1.64.11,3.38.32,5.12.32,13.19.03,26.39-.2,39.58.12,5.11.12,6.18-1.78,6.16-6.48-.16-39.92-.09-79.84-.11-119.76,0-1.89-.24-3.77-.36-5.65h-61.59v123.54q9.91,1.6,11.2,7.91ZM365.14,145.17h-33.42v94.96h31.39c.43-9.71,1.12-19.11,1.21-28.51.19-18.67.02-37.35.09-56.03.01-3.46.47-6.92.73-10.42ZM483.99,240.46c9.99,0,19.03.18,28.04-.21,1.19-.05,3.24-3.03,3.22-4.62-.46-29.92-1.17-59.83-1.85-89.75,0-.3-.45-.58-.73-.93h-31.31c.3,4.5.82,8.74.84,12.98.09,20.85-.09,41.69.12,62.54.07,6.52,1.07,13.04,1.68,20ZM468.98,103.36c-.13.29-.26.57-.39.86,1.61.53,3.19,1.14,4.82,1.58,11.56,3.14,23.13,6.26,34.71,9.35,13.21,3.52,13.08,3.49,12.76,17.45-.1,4.3-1.57,5.83-5.92,5.82-61.23-.1-122.45-.06-183.68-.07-2.78,0-6.44.15-5.61-3.91,1.15-5.62-3.92-12.47,3.22-16.88.15-.09.39-.04.58-.09,6.08-1.61,12.16-3.2,18.22-4.85,10.12-2.75,20.23-5.55,30.34-8.33-.07-.23-.15-.46-.22-.69h-72.97v40.9c7.28,0,14.12.02,20.96-.03.71,0,1.95-.35,2.05-.76,1.41-5.47,5.83-3.68,9.21-3.69,57.09-.08,114.18-.1,171.28.04,3.58,0,8.69-2.46,10.11,3.91.07.33,1.43.51,2.18.52,6.83.04,13.66.02,20.73.02v-41.16h-72.39ZM115.12,161.36h212.29v-11.74H115.12v11.74ZM519,161.91h8.46c64.92,0,129.83,0,194.75,0q10.12,0,9.34-10.08c-.06-.73-.46-1.44-.7-2.15h-211.85v12.23ZM245.51,166.99v73.15h30.67v-73.15h-30.67ZM570.02,240.06h30.74v-73.04h-30.74v73.04ZM288.59,167.01v72.92h30.48v-72.92h-30.48ZM643.27,240.15v-72.89h-30.2v72.89h30.2ZM557.91,240.18v-73.15h-30.42v73.15h30.42ZM233.21,240.15v-73.1h-30.19v73.1h30.19ZM655.58,166.95v73.13h29.89v-73.13h-29.89ZM515.64,122.44h-7.82c-56.45,0-112.89,0-169.34,0-9.11,0-9.86,1.09-7.22,10.5h184.38v-10.51ZM160.59,240.01h30.16v-72.89h-30.16v72.89ZM697.9,167.07v73h26.44v-73h-26.44ZM121.98,239.94h26.62v-72.87h-26.62v72.87ZM104.44,246.01c0,.44,0,.88,0,1.32h257.34c0-.44,0-.88,0-1.32H104.44ZM741.95,247.46c-.02-.44-.05-.88-.07-1.32h-257.08v1.32h257.15ZM109.74,110.31v-10.32h-61.77v10.32h61.77ZM736.62,110.24h61.57v-10.37h-61.57v10.37ZM352.09,116.37c.12.22.24.44.36.66h61.88c-4.39-6.61-2.31-11.97,2.6-18.1-22.66,6.1-43.75,11.77-64.84,17.44ZM493.73,117.32c.08-.33.15-.66.23-.98-21.11-5.66-42.21-11.31-63.32-16.97,4.8,5.83,4.52,11.6,1.71,17.95h61.38ZM456.49,247.35c0-.46,0-.91,0-1.37h-66.64c0,.46,0,.91,0,1.37h66.64ZM464.25,232.39c.35,0,.7,0,1.04,0v-82.1c-.35,0-.7,0-1.04,0v82.1ZM369.49,232.36c.35,0,.7,0,1.06,0v-82.19c-.35,0-.7,0-1.06,0v82.19ZM475.5,232.32l1.11.03v-82.15c-.37,0-.74,0-1.11,0v82.11ZM384.17,248v-10.22c-4.84,0-9.32-.36-13.69.21-1.36.18-3.07,2.72-3.42,4.42-.45,2.19-1.09,5.48,2.99,5.56,4.63.09,9.26.02,14.13.02ZM462.21,238.03v9.64h16.61v-9.64h-16.61ZM240.01,170.11c-.32,0-.64,0-.96,0v69.53c.32,0,.64,0,.96,0v-69.53ZM563.25,239.79c.37-.02.74-.04,1.1-.05v-69.81c-.37,0-.74.01-1.1.02v69.84ZM729.69,239.73c3.06-7.27,2.35-66.75,0-69.84v69.84ZM691.01,239.69c.37,0,.74,0,1.11,0v-69.64c-.37,0-.74,0-1.11,0v69.64ZM520.59,239.68c.37-.02.74-.05,1.11-.07v-69.52c-.37,0-.74,0-1.11,0v69.59ZM196.25,239.64c.38.02.77.05,1.15.07v-69.66c-.38,0-.77,0-1.15,0v69.6ZM606.48,239.6c.31,0,.61,0,.92,0v-69.39c-.31,0-.61,0-.92,0v69.39ZM650.09,170.08c-.33,0-.67,0-1,0v69.6c.33,0,.67,0,1,0v-69.6ZM324.42,239.67l1.1-.07v-69.48c-.37,0-.73,0-1.1,0v69.55ZM115.3,239.72h1.07v-69.72h-1.07v69.72ZM430.51,111.18c.02-.9.04-1.8.06-2.7-2.37-1.76-4.56-4.57-7.17-5.05-4.08-.74-7.2,2.47-6.46,6.31.47,2.46,3.84,5.73,6.25,6.04,2.21.28,4.86-2.92,7.32-4.59ZM382.02,150.25c-.32-.02-.65-.04-.97-.07v82.11c.32,0,.65,0,.97,0v-82.04ZM281.81,239.76c.32,0,.65,0,.98,0v-69.85c-.32,0-.65,0-.98,0v69.85ZM155.12,170.14c-.32.01-.63.03-.95.04v69.5h.95v-69.54Z"/>
    <path class="st1" d="M41.82,260.53c2.63-1.04,4.06-1.85,5.6-2.15,1.52-.3,3.14-.11,4.71-.11,247.34,0,494.67,0,742.01.05,3.02,0,6.05.74,9.07,1.13-.02.59-.04,1.17-.05,1.76-.95.53-1.9,1.52-2.85,1.52-251.46.06-502.91.06-754.37-.02-.95,0-1.89-.96-4.12-2.17Z"/>
    <path class="st1" d="M729.67,456.93v-26.84c-2.78-.19-5.25-.36-8.14-.56v-9.56h28.81v9.45c-2.59.24-5.07.46-8.05.74v63.51c2.76.21,5.26.4,8.12.61v9.54h-28.87v-9.58c2.71-.16,5.19-.31,8.45-.51,0-8.06.15-15.86-.17-23.63-.05-1.13-2.35-3.07-3.64-3.1-11.02-.25-22.05-.25-33.07.01-1.25.03-3.46,2.07-3.51,3.25-.32,7.61-.16,15.25-.16,23.29,3.18.28,5.84.51,8.85.77v9.48h-29.28v-9.42c2.62-.23,5.27-.46,8.31-.72v-63.42c-2.56-.25-5.19-.51-8.27-.81v-9.45h29.25v9.5c-2.91.25-5.57.48-8.84.75,0,8.12-.1,15.94.13,23.76.03,1.01,1.79,2.8,2.77,2.82,12.34.19,24.69.13,37.33.13Z"/>
    <path class="st1" d="M569.8,494.05v9.59h-22.56c.5-3.88.96-7.5,1.43-11.12l1.58.05c-1.4-2.35-2.78-4.72-4.2-7.06-7.83-12.98-9.63-13.75-25.81-10.95-.19,1.03-.56,2.16-.58,3.29-.07,5.09-.03,10.17-.03,15.57,2.69.35,4.92.65,7.42.98v9.28h-27.72v-9.26c2.74-.27,5.41-.54,8.43-.84v-63.39c-2.73-.22-5.22-.42-8.22-.66v-9.85h12.68c8.27,0,16.6.63,24.8-.16,9.86-.95,17.79,1.4,23.07,10.01,1.82,2.97,3.04,6.39,4,9.75.57,2-.17,4.34.15,6.45,1.53,9.92-1.2,18.09-9.45,24.16-3.37,2.48-3.42,5.17-.94,8.49,2.11,2.82,3.82,5.96,5.5,9.07,2.21,4.08,4.42,7.98,10.42,6.61ZM519.65,463.27c7.32,0,13.66-.58,19.84.16,6.81.82,11.68-3.15,13.03-7.79,1.67-5.73.68-12.68-.83-18.68-.68-2.71-5.2-5.79-8.35-6.25-6.54-.96-13.33-.47-19.99-.14-1.28.06-3.5,2.05-3.54,3.2-.29,9.57-.16,19.15-.16,29.5Z"/>
    <path class="st1" d="M43.23,504.12v-9.72c2.8-.27,5.46-.53,8.5-.82v-63.36c-2.81-.25-5.46-.49-8.42-.76v-9.35c1.39-.14,2.88-.42,4.37-.42,15.34-.03,30.68-.17,46.01.13,2.56.05,5.38,1.62,7.57,3.19,8.73,6.25,11.51,14.71,10.58,25.46-.96,11.11-.5,22.38-.09,33.56.21,5.75-1.86,9.7-5.53,14.02-5.3,6.23-11.04,8.66-19.26,8.27-14.3-.68-28.65-.19-43.73-.19ZM63.8,493.08c9.73,0,18.78.62,27.68-.26,4.64-.46,8.38-4.27,8.42-9.73.11-14.13.1-28.27,0-42.4-.03-4.99-5.11-10.16-10.05-10.25-7.27-.14-14.55.03-21.82-.06-2.86-.04-4.3.81-4.29,4,.09,19.22.04,38.44.04,58.7Z"/>
    <path class="st1" d="M526.76,325.23c-2.57-.31-4.85-.59-7.51-.92v-8.55c7.36,0,14.76-.2,22.12.18,1.33.07,2.92,2.28,3.76,3.84,9.4,17.48,18.67,35.02,27.98,52.54,1.09,2.05,2.21,4.08,4.3,5.93v-53.03c-2.23-.27-4.5-.54-7.21-.87v-8.3h26.15v8.18c-2.38.29-4.65.57-7.67.95-.1,1.92-.29,3.98-.29,6.04-.02,18.48-.11,36.96.06,55.44.04,4.05-1.21,5.11-5.3,5.51-7.82.76-12.26-1.73-15.81-9.14-7.88-16.46-16.94-32.37-25.53-48.49-.9-1.68-1.88-3.31-3.65-6.41v54.41c2.22.25,4.5.5,7.27.82v8.2h-26.14v-8.16c2.54-.3,4.82-.56,7.47-.87v-57.32Z"/>
    <path class="st1" d="M462.58,420.13c-1.29,3.95,3.26,9.73-5.36,10.05,1.28,3.85,2.39,7.31,3.57,10.75,5.35,15.59,10.84,31.13,15.99,46.79,1.44,4.39,3.23,7.46,8.82,6.27v9.79h-26.3v-9.56c2.51-.16,4.81-.31,7.87-.51-1.66-4.93-2.94-9.58-4.89-13.94-.56-1.25-3.01-2.28-4.63-2.32-8.06-.23-16.14.07-24.2-.19-3.6-.11-5.4,1.19-6.32,4.56-1.02,3.76-2.41,7.42-3.82,11.68,2.79.29,5.2.54,8,.83v9.45h-26.31v-9.68c5.76,1.17,7.35-2.38,8.83-6.82,6.27-18.78,12.82-37.46,19.43-56.67-7.37-.78-4.73-5.96-4.96-10.47h34.27ZM445.21,429.89c-4.63,13.37-8.68,25.07-12.83,37.04h25.76c-4.29-12.3-8.33-23.85-12.93-37.04Z"/>
    <path class="st1" d="M194.54,503.88h-61.09v-9.56c2.67-.2,5.34-.41,8.41-.65v-63.44c-2.65-.23-5.29-.47-8.4-.75v-9.44h61.42c0,7.48.43,15.11-.39,22.6-.15,1.35-5.44,2.13-9.53,3.6v-16h-30.78v26.51h29.76v9.87h-29.63v27.04h30.15v-14.32h10.08v24.54Z"/>
    <path class="st1" d="M640.18,474.16h8.84c4.97,13.48-3.25,21.27-11.71,28.84-.99.89-2.9,1.03-4.39,1.06-5.12.12-10.33-.56-15.34.18-10.25,1.51-17.63-2.11-23.68-10.29-2.35-3.17-3.83-5.9-3.77-9.93.23-14.16.31-28.32-.03-42.47-.13-5.3,1.66-8.95,4.95-13.06,5.56-6.95,11.84-10.15,20.71-8.92,4.06.56,8.3.48,12.38,0,6.06-.7,9.83,2.05,14.3,5.9,7.86,6.77,8.63,14.68,6.99,24.14h-9.46c-.12-5.86.87-12.21-5.27-15.74-2.56-1.47-5.37-2.92-8.22-3.34-3.85-.57-7.86-.16-11.79-.14-8.36.03-12.88,4.59-12.89,12.98-.01,12.78-.03,25.57.01,38.35.02,6.64,4.72,11.31,11.33,11.39,3.15.04,6.3,0,9.45,0,12.62,0,16.79-3.96,17.26-16.37.03-.75.19-1.5.33-2.59Z"/>
    <path class="st1" d="M377.96,391.59v-8.14c2.4-.26,4.68-.51,7.43-.81v-57.58c-2.44-.21-4.72-.4-7.35-.63v-8.21h55.36v21.67h-8.44v-12.62h-28.55c0,7.06-.2,13.89.2,20.7.07,1.12,2.75,2.93,4.28,2.99,7.61.31,15.24.14,23.15.14v9.08c-7.45,0-14.85.18-22.25-.07-4.02-.14-5.7,1.06-5.5,5.3.29,6.23.08,12.48.08,19.15h28.01c.19-4.31.38-8.53.59-13.1h8.49v22.13h-55.5Z"/>
    <path class="st1" d="M384.82,474.05h8.42c3.49,11.87-1.56,23.98-12.26,29.44-1.29.66-3.04.59-4.58.6-7.68.06-15.36-.2-23.02.12-3.96.17-6.34-1.6-9.19-3.99-7.52-6.3-10.41-13.72-9.64-23.64.9-11.53.48-23.19.09-34.77-.19-5.71,1.64-9.73,5.4-14.06,5.35-6.13,11.05-9.47,19.27-8.14,2.3.37,4.81.48,7.06-.01,11.72-2.56,20.08,2.97,25.48,12.16,2.79,4.75,2.37,11.38,3.51,17.81h-10.76c.49-6.31-.18-12.52-6.15-16.34-2.02-1.29-4.41-2.49-6.73-2.7-4.49-.42-9.04-.16-13.57-.12-7.2.07-11.84,4.81-11.85,12.15-.02,12.97-.03,25.94,0,38.92.02,7.14,4.48,11.58,11.58,11.64,1.97.02,3.96-.19,5.9.03,13.42,1.54,21.19-3.32,21.03-19.1Z"/>
    <path class="st1" d="M783.63,315.93c-1.7,3.98-2.92,6.85-4.15,9.72-.69-.12-1.39-.25-2.08-.37,2.34,6.8,4.68,13.6,7.02,20.4,3.52,10.2,7.18,20.35,10.49,30.62,1.31,4.07,2.83,7.29,8.21,6.52v8.18h-23.75v-7.89c2.18-.35,4.23-.68,6.99-1.12-1.4-4.15-2.48-8.06-4.1-11.74-.55-1.25-2.46-2.63-3.79-2.67-8.06-.25-16.13-.22-24.19-.01-1.2.03-2.95,1.27-3.43,2.39-1.59,3.72-2.71,7.64-4.17,11.94,2.69.45,4.76.79,7.18,1.19v7.89h-23.72v-7.83c5.62.38,6.95-3.66,8.44-8.12,5.5-16.54,11.29-32.97,17.15-49.96-5.83-.84-5.32-4.64-4.3-9.11h32.18ZM767.19,326.2c-.45.03-.91.06-1.36.1-3.6,10.42-7.19,20.85-10.97,31.79h23.33c-3.78-10.94-7.39-21.41-11-31.89Z"/>
    <path class="st1" d="M174.08,353.81c0,5.9-.35,11.82.1,17.69.42,5.37-1.72,8.99-5.07,13.02-4.77,5.73-10.06,8.16-17.37,7.24-3.68-.47-7.54-.55-11.2.01-8.74,1.36-14.97-1.96-20.26-8.74-2.43-3.11-3.93-5.85-3.86-9.91.25-13.36.07-26.74.1-40.1.02-7.33,10.07-17.35,17.37-17.37,5.32-.02,10.76.75,15.92-.16,10.56-1.87,17.06,3.58,22.61,11.14,1.04,1.42,1.53,3.55,1.57,5.37.17,7.27.07,14.55.07,21.82ZM163.64,353.56c0-5.7.02-11.4,0-17.1-.04-7.43-4.04-11.34-11.63-11.37-4.72-.02-9.45-.04-14.17,0-6.4.07-10.9,4.58-10.93,11.06-.06,11.4-.04,22.8,0,34.2.02,7.48,4.07,11.55,11.46,11.58,4.53.02,9.05.02,13.58,0,7.9-.03,11.68-3.86,11.7-11.86.01-5.5,0-11.01,0-16.51Z"/>
    <path class="st1" d="M43.23,391.14v-7.29q8.01-2.21,8.01-11c0-13.74,0-27.48,0-41.22v-6.53c-2.91-.37-5.2-.66-7.87-.99v-8.2c1.74-.08,3.62-.24,5.5-.25,10.02-.03,20.17.98,30.04-.28,10.73-1.38,16.21,4.83,21.79,11.68.97,1.19,1.16,3.23,1.21,4.9.15,5.1-.17,10.22.13,15.3.24,4.03-1.41,6.76-3.78,9.93-5.38,7.19-12,9.82-20.79,8.77-4.98-.6-10.1-.11-15.49-.11v16.6c2.94.26,5.62.5,8.69.77v7.93h-27.44ZM61.81,355.96c5.57,0,10.63,0,15.7,0,13.22,0,20.59-12.01,14.18-23.71-1.58-2.88-4.79-6.37-7.63-6.75-7.26-.96-14.72-.32-22.26-.32v30.78Z"/>
    <path class="st1" d="M216.58,429.37v-9.36h30.44v9.51c-3.03.18-6.07.35-9.64.56v63.58h28.49v-14.42h9.14v24.41h-58.34v-9.28c2.51-.21,5-.41,8.01-.66v-63.52c-2.6-.26-5.23-.52-8.09-.8Z"/>
    <path class="st1" d="M503.38,342.39h-8.39c-.82-4.8,1.03-10.9-4.64-13.99-2.58-1.41-5.35-2.88-8.19-3.3-3.85-.56-7.85-.2-11.79-.13-5.39.1-10.11,4.56-10.15,9.9-.1,12.38-.12,24.76,0,37.14.05,5.3,4.86,9.69,10.26,9.8,1.97.04,3.96-.2,5.9.04,11.96,1.48,18.96-3.41,18.57-17.21h7.93c2.61,11.04-.88,19.97-10.44,25.87-1.23.76-2.99.85-4.51.89-4.52.11-9.13-.48-13.56.16-9.13,1.31-16.18-1.58-21.04-9.28-1.65-2.62-3.43-5.74-3.51-8.67-.37-13.75-.2-27.51-.15-41.26.02-6.47,10.3-16.84,16.7-16.9,5.9-.05,11.83.33,17.7-.11,5.6-.42,9.12,1.99,13.31,5.53,7.28,6.16,6.65,13.41,5.98,21.53Z"/>
    <path class="st1" d="M714.57,342.42h-7.64c-.92-4-1.01-8.1-2.79-11.25-2.74-4.84-7.32-7.3-13.35-6.26-5.69.99-12.48-2.48-16.71,4.06-1.19,1.84-2.39,4.1-2.43,6.19-.23,12.17-.17,24.35-.09,36.52.04,5.74,4.6,10.04,10.45,10.14,1.77.03,3.56-.17,5.31.03,12.18,1.44,19.22-2.99,19.02-17.23,1.26-.15,2.56-.4,3.86-.44,1.36-.04,2.72.11,4.04.18,2.69,11.5-1.39,21.38-11,26.39-1.29.67-3.03.64-4.57.67-4.32.08-8.72-.46-12.96.13-9.08,1.28-16.21-1.41-21.03-9.22-1.63-2.63-3.33-5.76-3.41-8.7-.36-13.74-.18-27.49-.15-41.23.02-6.94,10.12-16.92,17.09-16.96,5.7-.03,11.44.37,17.1-.11,5.64-.48,9.17,2,13.31,5.56,7.05,6.07,7.33,13.15,5.96,21.53Z"/>
    <path class="st1" d="M315.35,392.55v-8.15c3.72-.24,7.17-.47,11-.72v-57.03c-.5-.29-.82-.65-1.14-.65-4.51-.02-10.15-1.61-13.17.51-2.55,1.79-2.05,7.91-2.97,12.45h-6.93v-21.65h60.24v21.43h-8.33v-12.57h-16.84c0,6.93,0,13.55,0,20.18,0,10.41.29,20.84-.12,31.24-.21,5.29,1.51,7.22,6.66,6.5,1.49-.21,3.07.15,4.95.27v8.19h-33.34Z"/>
    <path class="st1" d="M793.42,493.74c3.4.17,6.31.31,9.65.47v9.52h-31.64v-9.42c3.03-.2,6.1-.39,9.62-.62v-63.59c-3.32-.19-6.38-.37-9.75-.57v-9.4h31.8v9.34c-3.28.22-6.33.43-9.68.66v63.62Z"/>
    <path class="st1" d="M196.26,324.54c-2.6-.27-4.89-.52-7.49-.79v-7.92h27.4v7.89c-2.83.28-5.5.54-8.62.84v57.5h25.53v-12.69h8.72c0,6.47.1,13.06-.12,19.63-.03.82-1.74,2.26-2.68,2.27-16.66.14-33.32.1-50.28.1v-8.32c2.53-.32,4.81-.6,7.53-.94v-57.58Z"/>
    <path class="st1" d="M622.68,324.53c-2.97-.25-5.48-.47-8.48-.72v-7.86h28.36v7.76c-2.59.25-5.41.53-8.6.84v57.47c2.89.35,5.73.68,8.81,1.05v7.81h-28.7v-7.81c2.82-.32,5.48-.62,8.61-.97v-57.55Z"/>
    <path class="st1" d="M266.13,381.97v-57.36c-2.91-.29-5.74-.57-8.85-.88v-7.73h28.64v7.73c-2.93.28-5.6.54-8.69.83v57.46c2.79.33,5.63.66,8.71,1.03v8.02h-28.63v-8c2.95-.37,5.78-.72,8.82-1.1Z"/>
    <path class="st1" d="M418.25,295.03c1.19,3.54,2.11,6.26,2.97,8.81-6.86,5.34-14.43,4.53-21.83,4.27-1-.04-2.53-1.31-2.75-2.26-.19-.83.88-2.55,1.79-2.94,6.3-2.67,12.7-5.09,19.82-7.89Z"/>
    <path class="st1" d="M98.87,190.58c0,14.16-.13,28.31.08,42.47.07,4.66-1.15,6.82-6.26,6.65-9.44-.31-18.9-.21-28.35-.04-4.26.08-5.89-1.42-5.86-5.84.15-29.29.16-58.59,0-87.88-.03-4.78,1.79-6.11,6.28-5.99,9.44.25,18.9.26,28.35,0,4.46-.13,5.87,1.56,5.83,5.82-.15,14.94-.06,29.88-.06,44.83ZM93.56,234.22v-89.43c-8.22,0-16.06.25-23.87-.09-4.84-.22-6.44,1.29-6.4,6.25.22,25.92.1,51.84.12,77.76,0,1.73.23,3.46.37,5.51h29.77Z"/>
    <path class="st1" d="M787.43,189.99c0,14.55-.17,29.09.1,43.63.09,4.77-1.67,6.15-6.16,6.05-9.44-.22-18.9-.2-28.34-.01-4.33.09-5.78-1.5-5.76-5.87.16-29.29.17-58.57-.01-87.86-.03-4.77,1.68-6.12,6.2-6,9.44.26,18.9.27,28.34,0,4.48-.13,5.76,1.56,5.71,5.84-.19,14.74-.07,29.48-.07,44.22ZM782.5,144.79c-8.29,0-16.29.25-24.28-.09-4.86-.21-6.39,1.35-6.35,6.29.22,25.9.1,51.81.12,77.71,0,1.72.22,3.43.36,5.45h30.14v-89.35Z"/>
  </g>
  <g>
    <g>
      <path class="st1" d="M1572.63,428.94h-54.06V169.81h148.53v45.02h-94.47v66.82h87.91v44.84h-87.91v102.45Z"/>
      <path class="st1" d="M1876.43,428.94l-18.79-61.68h-94.47l-18.79,61.68h-59.2l91.46-260.19h67.17l91.81,260.19h-59.2ZM1844.52,321.18l-18.79-60.26c-1.18-4.02-2.75-9.19-4.7-15.51-1.95-6.32-3.9-12.76-5.85-19.32-1.95-6.56-3.52-12.26-4.7-17.1-1.18,4.85-2.81,10.84-4.88,17.99-2.07,7.15-4.05,13.91-5.94,20.29-1.89,6.38-3.25,10.93-4.08,13.65l-18.61,60.26h67.53Z"/>
      <path class="st1" d="M1968.24,169.81h80.65c34.5,0,60.62,4.85,78.34,14.53,17.72,9.69,26.59,26.71,26.59,51.05,0,9.81-1.57,18.67-4.7,26.59-3.13,7.92-7.65,14.42-13.56,19.5-5.91,5.08-13.12,8.39-21.62,9.93v1.77c8.62,1.77,16.42,4.82,23.4,9.13,6.97,4.31,12.55,10.58,16.75,18.79,4.19,8.21,6.29,19.11,6.29,32.7,0,15.72-3.84,29.19-11.52,40.41-7.68,11.23-18.64,19.82-32.88,25.79-14.24,5.97-31.17,8.95-50.78,8.95h-96.95V169.81ZM2023.18,272.44h31.9c15.95,0,27-2.51,33.14-7.53,6.14-5.02,9.22-12.43,9.22-22.24s-3.63-17.04-10.9-21.36c-7.27-4.31-18.76-6.47-34.47-6.47h-28.89v57.6ZM2023.18,316.04v67.53h35.8c16.54,0,28.06-3.19,34.56-9.57,6.5-6.38,9.75-14.95,9.75-25.7,0-6.38-1.42-11.99-4.25-16.84-2.84-4.84-7.59-8.62-14.27-11.34-6.68-2.72-15.86-4.08-27.56-4.08h-34.03Z"/>
    </g>
    <g>
      <path class="st1" d="M2218.59,428.94V169.81h18.26v242.47h123.36v16.66h-141.62Z"/>
      <path class="st1" d="M2566.87,428.94l-35.27-91.63h-108.83l-35.98,91.63h-18.61l101.91-260.01h16.66l99.25,260.01h-19.14ZM2525.75,320.82l-35.8-97.13c-.95-2.48-2.1-5.67-3.46-9.57-1.36-3.9-2.78-8.03-4.25-12.41-1.48-4.37-2.92-8.51-4.34-12.41-1.18,4.14-2.48,8.27-3.9,12.41-1.42,4.14-2.78,8.12-4.08,11.96-1.3,3.84-2.54,7.3-3.72,10.37l-37.22,96.77h96.77Z"/>
      <path class="st1" d="M2622.71,169.81h71.07c32.02,0,55.45,5.02,70.28,15.07,14.83,10.04,22.24,26.05,22.24,48.03,0,9.93-1.92,18.96-5.76,27.12-3.84,8.15-9.51,14.98-17.01,20.47-7.51,5.49-16.75,9.25-27.74,11.25v1.24c13.12,2.01,23.96,5.64,32.52,10.9,8.57,5.26,14.95,12.17,19.14,20.74,4.19,8.57,6.29,18.76,6.29,30.57,0,17.02-3.87,30.96-11.61,41.83-7.74,10.87-18.46,18.91-32.17,24.1-13.71,5.2-29.54,7.8-47.5,7.8h-79.76V169.81ZM2640.96,285.02h57.43c24.34,0,41.95-4.25,52.82-12.76,10.87-8.51,16.31-21.09,16.31-37.75s-5.85-29.66-17.55-37.22c-11.7-7.56-30.43-11.34-56.19-11.34h-52.82v99.08ZM2640.96,300.97v111.84h60.97c23.99,0,42.06-4.87,54.24-14.62,12.17-9.75,18.26-24.31,18.26-43.69,0-12.76-2.84-23.07-8.51-30.93-5.67-7.86-14.15-13.59-25.43-17.19-11.29-3.6-25.32-5.41-42.09-5.41h-57.43Z"/>
    </g>
  </g>
  <g>
    <path class="st2" d="M1411.74,328.88c-2.18-2.23-24.86,9.51-26.94,11.74-3.4,3.63-5.83,18.47-9.42,25.14-24.53,45.51-92.12,55.35-85.22-16.12,3.77-39.05,50.13-92.7,89.71-59.49l27.3-13.51c10.27-11.39-12.3-63.54,21.12-63.84,59.47,121.32-21.28,265.87-157.52,270.89l2.74-20.78,138.24-78.74v-55.28Z"/>
    <path class="st3" d="M1219.04,152.27c-.97,2.97,19.94,17.64,22.87,18.46,4.79,1.33,19.07-3.38,26.65-3.28,51.69.69,91.69,56.06,25.13,83.01-36.36,14.72-105.37-1.56-94.24-52.01l-24.61-17.96c-14.85-3.84-50.64,40.3-66.37,10.81,80.05-108.85,245.55-104.13,313.04,14.34l-19.69,7.19-133.76-86.13-49.01,25.57Z"/>
    <path class="st0" d="M1166.19,411.83c3.03-.76,4.3-26.27,3.43-29.19-1.43-4.77-13.02-14.34-16.97-20.8-26.96-44.11-1.41-107.46,56.85-65.49,31.83,22.93,54.82,90,6.21,107.46l-2.08,30.39c4.67,14.61,61.08,21.38,44.51,50.41-134.76-9.74-218.95-152.31-154.66-272.54l16.57,12.83-1.62,159.08,47.76,27.85Z"/>
  </g>
  <line class="st4" x1="943.57" y1="573.34" x2="943.57" y2="24.34"/>
</svg>